# xmcd CD database file
#
# Track frame offsets:
#	150
#	117862
#	125625
#	153312
#	176125
#	188350
#	201087
#	217962
#
# Disc length: 3057 seconds
#
# Revision: 2
# Processed by: cddbd v1.5PL3 Copyright (c) Steve Scherf et al.
# Submitted via: CDex 1.51
#
DISCID=690bef08
DTITLE=Various Artist - 梁祝小提琴協奏曲
DYEAR=1900
DGENRE=Classical
TTITLE0=梁祝 - 小提琴協奏曲
TTITLE1=白毛女 - 管弦樂曲
TTITLE2=草原英雄小姐妹 - 琵琶協奏曲
TTITLE3=春節序曲 - 管弦樂曲
TTITLE4=新春樂 - 小提琴與樂隊
TTITLE5=山澗溪流 - 豎琴曲
TTITLE6=苗嶺的早晨 - 小提琴及鋼琴
TTITLE7=新疆之春 - 小提琴及鋼琴
EXTD=
EXTT0=
EXTT1=
EXTT2=
EXTT3=
EXTT4=
EXTT5=
EXTT6=
EXTT7=
PLAYORDER=
